<?xml version="1.0" standalone="no"?>
<!DOCTYPE svg PUBLIC "-//W3C//DTD SVG 20010904//EN"
 "http://www.w3.org/TR/2001/REC-SVG-20010904/DTD/svg10.dtd">
<svg version="1.0" xmlns="http://www.w3.org/2000/svg"
 width="1000.000000pt" height="1080.000000pt" viewBox="0 0 1000.000000 1080.000000"
 preserveAspectRatio="xMidYMid meet">

<g transform="translate(0.000000,1080.000000) scale(0.100000,-0.100000)"
fill="#000000" stroke="none">
<path d="M1920 6928 c0 -368 4 -668 9 -668 4 0 19 -20 32 -45 l24 -45 153 0
153 0 -7 23 c-3 12 -14 38 -24 57 -27 54 -150 340 -150 349 0 4 29 7 65 6 36
-1 65 0 65 1 0 2 -45 105 -99 229 l-99 225 58 0 58 0 -38 88 c-21 48 -71 161
-110 252 -40 91 -76 172 -81 180 -5 9 -9 -269 -9 -652z"/>
<path d="M1021 6593 l-2 -573 150 0 150 0 -31 73 c-17 39 -50 116 -74 170 -24
53 -44 99 -44 102 0 3 24 5 54 5 l54 0 -79 180 c-43 99 -79 182 -79 185 0 3
20 5 44 5 l45 0 -76 173 c-41 94 -83 190 -93 212 -16 39 -17 20 -19 -532z"/>
<path d="M2746 7112 c0 -15 -4 -30 -10 -34 -8 -6 -8 -8 1 -8 9 0 12 -147 12
-607 l1 -608 165 -1 c91 -1 165 0 165 2 0 2 -12 29 -26 61 -62 137 -134 308
-134 315 0 4 25 8 55 8 30 0 55 3 55 8 0 4 -35 88 -79 187 -107 244 -103 225
-43 225 l50 0 -103 235 c-56 130 -104 237 -106 240 -3 2 -4 -8 -3 -23z"/>
<path d="M7495 7064 c-55 -14 -85 -27 -80 -35 4 -5 -1 -6 -9 -3 -9 3 -31 -11
-56 -36 -25 -25 -39 -47 -36 -56 3 -8 1 -12 -4 -9 -5 3 -17 -19 -25 -50 -17
-58 -14 -111 10 -168 12 -28 11 -32 -21 -59 -19 -17 -32 -33 -30 -37 3 -4 -4
-7 -14 -8 -11 -1 -19 2 -17 6 4 17 -45 72 -59 67 -8 -3 -13 -2 -10 3 3 5 -8
14 -26 20 -53 19 -156 10 -126 -11 9 -7 7 -8 -8 -3 -46 12 -113 -79 -114 -154
0 -19 5 -48 11 -65 10 -29 8 -34 -33 -76 -65 -68 -98 -197 -69 -273 l9 -23
399 -3 c219 -2 469 -6 556 -10 l157 -6 6 35 c4 19 17 57 30 84 12 28 20 54 17
59 -3 6 -1 7 4 4 13 -8 36 17 25 27 -4 4 -2 6 3 4 11 -3 107 57 101 63 -6 6
63 13 139 13 157 0 283 -114 302 -275 3 -27 7 -49 9 -49 19 0 401 -34 504 -45
319 -34 486 -57 745 -102 200 -34 196 -34 207 2 16 55 -18 215 -43 199 -5 -3
-6 1 -3 9 3 8 -12 29 -36 51 -36 32 -39 39 -29 58 22 41 11 167 -13 152 -7 -5
-8 -2 -3 5 9 16 -44 73 -63 66 -7 -2 -10 -1 -7 5 9 14 -71 32 -113 24 -56 -11
-107 -48 -128 -93 -11 -22 -21 -40 -24 -40 -3 0 -17 20 -32 45 -17 28 -32 42
-40 38 -6 -4 -8 -3 -4 4 3 6 -9 23 -28 38 -34 28 -34 28 -18 58 25 46 22 160
-5 211 -25 48 -72 97 -84 89 -5 -3 -8 0 -7 6 5 18 -81 49 -137 49 -62 1 -97
-8 -88 -22 3 -5 1 -7 -5 -3 -16 10 -64 -12 -56 -26 4 -6 3 -8 -3 -5 -15 9 -58
-33 -81 -79 -30 -60 -37 -133 -17 -200 l17 -58 -26 -19 c-14 -10 -23 -24 -20
-29 4 -6 2 -8 -3 -5 -12 8 -54 -43 -79 -97 -13 -27 -21 -33 -30 -25 -7 6 -18
8 -23 5 -5 -4 -13 -1 -17 5 -4 7 -3 9 3 6 33 -21 45 127 14 183 -22 42 -83 86
-129 94 -41 6 -94 -3 -86 -15 3 -5 -2 -6 -10 -3 -8 3 -26 -2 -40 -12 -44 -28
-67 -70 -74 -136 l-8 -63 -17 35 c-9 19 -33 52 -52 73 -31 34 -38 37 -53 25
-15 -11 -16 -11 -4 3 10 13 10 19 -3 29 -13 11 -13 16 2 44 22 41 21 148 -2
201 -33 77 -110 138 -194 151 -52 8 -134 -4 -125 -18 4 -7 2 -8 -4 -4 -16 10
-74 -22 -66 -36 4 -6 3 -8 -3 -5 -12 8 -55 -37 -76 -78 -8 -17 -18 -52 -22
-78 -7 -44 -17 -58 -29 -39 -3 5 1 30 9 57 17 56 19 106 5 156 -13 45 -53 105
-68 102 -7 -2 -11 2 -9 9 6 32 -150 86 -208 72z"/>
<path d="M1660 4632 c0 -273 3 -391 11 -399 12 -12 39 -6 51 11 4 6 8 183 8
394 l0 382 -35 0 -35 0 0 -388z"/>
<path d="M3830 4638 c0 -211 4 -389 9 -396 4 -8 19 -12 32 -10 l24 3 3 393 2
392 -35 0 -35 0 0 -382z"/>
<path d="M6012 4628 l3 -393 24 -3 c13 -2 28 2 32 10 5 7 9 185 9 396 l-1 382
-35 0 -34 0 2 -392z"/>
<path d="M8180 4630 c0 -363 1 -390 18 -399 11 -6 24 -6 35 0 16 9 17 41 17
399 l0 390 -35 0 -35 0 0 -390z"/>
<path d="M0 3295 l0 -284 83 -3 82 -3 0 -50 0 -50 -83 -3 -82 -3 2 -327 3
-327 4998 -3 4997 -2 0 330 0 330 -80 0 -80 0 0 55 0 55 80 0 80 0 0 285 0
285 -5000 0 -5000 0 0 -285z m790 -340 l0 -55 -160 0 -160 0 0 55 0 55 160 0
160 0 0 -55z m621 28 c2 -16 3 -40 1 -56 l-3 -28 -157 3 -157 3 -3 39 c-6 67
-9 66 162 66 l154 0 3 -27z m627 -30 l3 -53 -160 0 -161 0 0 55 0 56 158 -3
157 -3 3 -52z m622 2 l0 -55 -160 0 -160 0 0 48 c0 27 3 52 7 55 3 4 75 7 160
7 l153 0 0 -55z m625 0 l0 -50 -157 -3 -158 -3 0 56 0 56 158 -3 157 -3 0 -50z
m625 0 l0 -56 -157 3 -158 3 -3 39 c-6 67 -9 66 163 66 l155 0 0 -55z m628 -2
l3 -53 -160 0 -161 0 0 55 0 56 158 -3 157 -3 3 -52z m622 2 l0 -55 -160 0
-160 0 0 48 c0 27 3 52 7 55 3 4 75 7 160 7 l153 0 0 -55z m625 0 l0 -50 -157
-3 -157 -3 -3 28 c-2 16 -1 40 1 56 l3 27 157 -2 156 -3 0 -50z m625 0 l0 -55
-160 0 -160 0 0 55 0 55 160 0 160 0 0 -55z m624 13 c-1 -21 -2 -45 -3 -53 -1
-13 -23 -15 -158 -13 l-158 3 -3 39 c-6 68 -10 67 165 64 l158 -3 -1 -37z
m626 -13 l0 -55 -160 0 -160 0 0 55 0 55 160 0 160 0 0 -55z m620 0 l0 -56
-157 3 -158 3 -3 39 c-6 67 -9 66 163 66 l155 0 0 -55z m628 -2 l3 -53 -160 0
-161 0 0 55 0 56 158 -3 157 -3 3 -52z m622 2 l0 -55 -160 0 -160 0 0 48 c0
27 3 52 7 55 3 4 75 7 160 7 l153 0 0 -55z"/>
<path d="M7487 2039 c-125 -29 -221 -125 -256 -256 -11 -41 -12 -42 -42 -31
-17 6 -54 8 -84 6 -92 -8 -160 -71 -178 -166 l-7 -33 77 3 77 3 7 32 c13 66
58 107 132 118 18 3 44 2 57 -3 23 -8 26 -5 47 47 39 98 143 171 243 171 99 0
202 -71 241 -166 21 -51 26 -55 50 -50 69 14 149 -39 168 -111 l11 -41 76 -1
76 -1 -7 32 c-12 59 -57 121 -105 146 -36 19 -57 23 -107 20 -60 -4 -61 -3
-67 24 -3 16 -18 54 -33 84 -65 133 -228 208 -376 173z"/>
<path d="M1960 1742 c-22 -12 -44 -35 -58 -62 -20 -41 -25 -44 -57 -42 -26 3
-41 -3 -60 -22 -35 -35 -33 -56 5 -56 19 0 30 5 30 14 0 21 39 46 71 46 20 0
30 7 39 30 17 40 51 60 104 60 48 0 87 -27 101 -70 4 -13 15 -20 31 -20 24 0
64 -31 64 -50 0 -5 14 -10 30 -10 38 0 40 21 5 56 -18 18 -34 25 -55 22 -26
-2 -32 2 -52 41 -26 51 -74 81 -128 81 -19 0 -51 -8 -70 -18z"/>
<path d="M4270 1649 c-94 -18 -178 -94 -211 -191 -11 -33 -23 -51 -31 -49 -7
2 -39 5 -70 5 -49 1 -62 -4 -95 -30 -38 -31 -72 -84 -73 -116 0 -15 10 -18 64
-18 l64 0 6 34 c12 63 104 114 160 88 22 -10 24 -7 36 31 28 98 103 151 210
151 100 0 170 -47 206 -139 14 -38 17 -40 52 -37 60 5 130 -51 135 -107 1 -19
8 -21 64 -21 57 0 63 2 63 20 0 37 -39 97 -77 121 -28 18 -53 24 -96 24 -53 0
-58 2 -64 25 -34 141 -193 238 -343 209z"/>
<path d="M0 400 l0 -400 5000 0 5000 0 0 400 0 400 -5000 0 -5000 0 0 -400z
m2192 123 c23 -20 23 -57 1 -74 -15 -11 -16 -11 -5 1 27 31 11 72 -33 83 -19
4 -19 5 -1 6 11 0 28 -6 38 -16z m-69 -8 c-3 -9 -8 -14 -10 -11 -3 3 -2 9 2
15 9 16 15 13 8 -4z m-1760 -114 c22 -61 43 -108 47 -104 4 4 24 56 45 116 21
59 42 107 47 107 11 0 9 -5 -42 -149 -24 -69 -43 -107 -54 -109 -9 -2 -16 -2
-16 0 0 2 -16 48 -36 103 -51 140 -55 157 -42 153 7 -3 30 -55 51 -117z m517
89 c0 -23 4 -30 20 -30 11 0 20 -4 20 -10 0 -5 -10 -10 -21 -10 -20 0 -21 -4
-17 -71 3 -55 8 -74 23 -85 23 -17 14 -29 -13 -15 -11 6 -22 25 -26 42 -10 51
-7 209 4 209 6 0 10 -13 10 -30z m515 16 c25 -11 33 -19 29 -30 -7 -19 -4 -19
-43 0 -36 18 -76 12 -85 -12 -9 -24 0 -31 59 -48 87 -26 108 -75 54 -128 -29
-29 -33 -30 -90 -25 -68 6 -72 8 -64 29 5 13 12 14 40 5 50 -15 100 1 100 33
0 17 -8 28 -24 35 -68 28 -106 52 -109 68 -13 70 53 106 133 73z m105 -16 c0
-25 4 -30 25 -30 16 0 25 -6 25 -15 0 -9 -9 -15 -25 -15 -24 0 -25 -3 -25 -60
0 -55 2 -62 25 -72 14 -6 25 -15 25 -20 0 -18 -31 -20 -55 -4 -24 16 -25 20
-25 131 0 96 3 115 15 115 10 0 15 -10 15 -30z m482 -32 l3 -62 36 32 c20 18
45 32 55 32 14 0 9 -9 -21 -40 -30 -30 -37 -44 -30 -55 6 -8 25 -35 43 -60 33
-44 33 -45 10 -45 -16 0 -32 14 -53 45 -16 25 -33 45 -37 45 -5 0 -8 -20 -8
-45 0 -38 -3 -45 -20 -45 -19 0 -20 7 -20 130 0 122 1 130 20 130 16 0 19 -8
22 -62z m193 30 c1 -20 -2 -24 -11 -17 -8 7 -14 6 -17 -3 -3 -7 -6 2 -6 20 -1
27 3 33 17 30 11 -2 17 -13 17 -30z m-1546 -54 c12 -15 21 -40 21 -55 0 -29 0
-29 -65 -29 -71 0 -78 -7 -49 -49 15 -20 23 -23 65 -19 48 5 65 -4 33 -16 -45
-17 -106 3 -123 41 -45 98 56 206 118 127z m191 16 c17 -11 10 -13 -40 -10
-47 2 -75 -28 -75 -80 0 -55 26 -80 82 -80 27 0 42 -4 38 -10 -9 -15 -78 -12
-102 5 -50 35 -50 135 0 170 24 17 74 20 97 5z m265 -13 c20 -16 28 -35 32
-69 5 -42 3 -50 -25 -78 -38 -37 -80 -40 -119 -6 -24 21 -28 32 -28 76 0 44 4
55 28 76 35 30 78 31 112 1z m85 7 c0 -14 2 -14 22 0 24 17 38 20 38 9 0 -5
-14 -16 -30 -25 -29 -17 -30 -19 -30 -93 0 -43 -4 -75 -10 -75 -6 0 -10 40
-10 100 0 60 4 100 10 100 6 0 10 -7 10 -16z m545 -9 c20 -19 25 -34 25 -75 0
-63 -30 -100 -82 -100 -67 0 -107 62 -87 135 18 66 97 88 144 40z m184 16 c21
-14 5 -28 -26 -24 -43 6 -68 -18 -68 -67 0 -50 24 -73 70 -68 21 2 30 -1 30
-12 0 -19 -48 -25 -85 -10 -63 26 -68 149 -6 178 26 13 67 14 85 3z m5400 -94
c8 -26 17 -47 21 -47 4 0 13 21 21 47 8 25 20 48 27 51 8 2 4 -19 -12 -63 -36
-99 -36 -99 -72 0 -16 44 -20 65 -12 63 7 -3 19 -26 27 -51z m638 38 c2 -6 -9
-11 -23 -10 -39 0 -42 -23 -5 -36 34 -12 49 -43 31 -64 -13 -16 -38 -19 -64
-9 -27 10 -18 22 15 20 45 -2 47 19 5 39 -37 18 -46 41 -24 63 15 15 60 12 65
-3z m333 -20 c0 -35 16 -47 26 -20 4 8 13 15 22 15 13 0 13 -3 -2 -19 -16 -18
-16 -21 -1 -50 19 -38 8 -40 -22 -3 l-22 27 -1 -27 c0 -16 -4 -28 -10 -28 -6
0 -10 30 -10 70 0 40 4 70 10 70 6 0 10 -16 10 -35z m580 32 c0 -4 -34 -104
-45 -136 -3 -8 -8 -11 -11 -8 -8 7 38 147 48 147 4 0 8 -2 8 -3z m70 -57 c0
-33 4 -60 10 -60 6 0 10 -4 10 -10 0 -5 -13 -10 -30 -10 -16 0 -30 5 -30 10 0
6 5 10 10 10 6 0 10 20 10 45 0 38 -2 43 -17 38 -16 -6 -16 -4 1 15 29 34 36
27 36 -38z m120 41 c-5 -11 -15 -23 -20 -26 -6 -4 -1 -14 12 -25 20 -15 21
-21 10 -44 -11 -26 -34 -32 -66 -20 -28 11 -17 24 14 18 22 -5 31 -2 36 11 6
16 -3 28 -31 39 -6 2 -5 9 3 17 18 19 15 29 -8 29 -11 0 -20 5 -20 10 0 6 18
10 40 10 37 0 40 -2 30 -19z m110 9 c0 -5 -11 -10 -25 -10 -32 0 -32 -16 -1
-24 27 -7 41 -35 31 -65 -7 -23 -37 -35 -65 -26 -31 10 -24 23 13 21 28 -1 32
2 32 24 0 21 -4 25 -30 24 -29 -1 -30 0 -27 32 4 31 7 34 38 34 19 0 34 -4 34
-10z m102 -7 c39 -35 8 -122 -44 -123 -10 0 -18 5 -18 10 0 6 9 10 20 10 10 0
24 9 31 21 9 18 8 20 -9 15 -38 -12 -68 44 -40 72 17 17 38 15 60 -5z m115 5
c14 -23 12 -106 -2 -118 -33 -27 -86 8 -70 46 4 11 7 27 6 37 -5 38 47 64 66
35z m93 -48 c0 -33 4 -60 10 -60 6 0 10 -4 10 -10 0 -5 -13 -10 -30 -10 -16 0
-30 5 -30 10 0 6 5 10 10 10 6 0 10 20 10 45 0 38 -2 43 -17 38 -16 -6 -16 -4
1 15 29 34 36 27 36 -38z m122 8 c2 -29 2 -61 0 -70 -5 -22 -22 -24 -22 -3 0
10 -10 15 -30 15 -16 0 -30 4 -30 9 0 18 55 100 67 101 6 0 13 -22 15 -52z
m116 40 c21 -21 13 -45 -25 -77 l-38 -30 43 -1 c23 0 42 -4 42 -10 0 -5 -22
-10 -50 -10 -62 0 -65 15 -14 63 42 40 39 62 -8 53 -26 -5 -29 -4 -18 9 15 18
51 20 68 3z m-2058 -33 c9 -10 9 -15 1 -15 -15 0 -14 -57 2 -63 6 -2 9 -8 4
-13 -12 -13 -34 18 -40 58 -7 49 8 64 33 33z m360 0 c9 -10 9 -15 1 -15 -15 0
-14 -57 2 -63 6 -2 9 -7 6 -11 -15 -17 -37 8 -41 47 -7 58 5 74 32 42z m-532
-7 c23 -23 13 -38 -24 -38 -41 0 -44 -24 -3 -27 42 -2 44 -3 29 -13 -35 -23
-80 1 -80 44 0 28 18 46 45 46 12 0 26 -5 33 -12z m117 3 c3 -5 -9 -11 -27
-13 -28 -2 -33 -7 -33 -28 0 -21 5 -26 33 -28 36 -4 34 -22 -3 -22 -28 0 -55
24 -55 50 0 37 67 69 85 41z m167 -8 c22 -20 23 -41 1 -65 -20 -22 -46 -23
-67 -2 -30 29 -9 84 31 84 9 0 25 -7 35 -17z m88 7 c0 -4 -7 -10 -15 -14 -9
-3 -15 -19 -15 -41 0 -19 -4 -35 -10 -35 -5 0 -10 22 -10 49 0 45 2 49 25 49
14 0 25 -4 25 -8z m274 -6 c21 -20 20 -43 -1 -66 -20 -22 -46 -23 -67 -2 -31
30 -9 84 34 84 10 0 26 -7 34 -16z m113 9 c14 -6 10 -9 -17 -13 -29 -4 -35 -9
-35 -30 0 -21 6 -26 35 -30 27 -4 31 -7 17 -13 -10 -4 -25 -7 -32 -7 -20 0
-45 28 -45 50 0 22 25 50 45 50 7 0 22 -3 32 -7z m250 0 c14 -6 10 -9 -17 -13
-29 -4 -35 -9 -35 -30 0 -21 5 -26 33 -28 36 -4 34 -22 -3 -22 -28 0 -55 24
-55 50 0 22 25 50 45 50 7 0 22 -3 32 -7z m105 -10 c22 -20 23 -41 1 -65 -20
-22 -46 -23 -67 -2 -30 29 -9 84 31 84 9 0 25 -7 35 -17z m113 6 c3 -5 14 -3
25 3 28 18 50 -6 50 -53 0 -22 -4 -39 -10 -39 -5 0 -10 18 -10 41 0 33 -3 40
-17 37 -13 -2 -19 -14 -21 -41 -4 -50 -22 -47 -22 4 0 36 -2 40 -22 37 -19 -2
-24 -10 -26 -40 -5 -55 -22 -47 -22 10 l0 48 35 1 c19 1 37 -3 40 -8z m-325
-79 c0 -5 -4 -10 -10 -10 -5 0 -10 5 -10 10 0 6 5 10 10 10 6 0 10 -4 10 -10z"/>
<path d="M2150 500 c0 -5 5 -10 10 -10 6 0 10 5 10 10 0 6 -4 10 -10 10 -5 0
-10 -4 -10 -10z"/>
<path d="M536 418 c-28 -39 -21 -48 39 -48 59 0 67 9 45 51 -15 27 -64 25 -84
-3z"/>
<path d="M986 424 c-50 -50 -21 -144 44 -144 48 0 80 50 66 104 -13 53 -75 75
-110 40z"/>
<path d="M1616 408 c-32 -46 -8 -118 39 -118 28 0 55 34 55 70 0 36 -27 70
-55 70 -13 0 -31 -10 -39 -22z"/>
<path d="M9204 375 c-7 -18 3 -35 21 -35 18 0 26 15 19 34 -8 20 -33 21 -40 1z"/>
<path d="M9322 374 c2 -11 11 -20 22 -22 13 -3 17 1 14 14 -2 11 -11 20 -22
22 -13 3 -17 -1 -14 -14z"/>
<path d="M9314 325 c-8 -21 10 -39 30 -32 22 9 20 24 -4 37 -16 9 -22 8 -26
-5z"/>
<path d="M9537 350 c-18 -29 -18 -30 2 -30 17 0 21 6 21 30 0 17 -1 30 -3 30
-1 0 -11 -13 -20 -30z"/>
<path d="M7415 340 c-4 -6 5 -10 19 -10 14 0 26 5 26 10 0 6 -9 10 -19 10 -11
0 -23 -4 -26 -10z"/>
<path d="M7694 336 c-10 -26 4 -48 28 -44 17 2 23 10 23 28 0 18 -6 26 -23 28
-13 2 -25 -3 -28 -12z"/>
<path d="M8054 336 c-10 -26 4 -48 28 -44 17 2 23 10 23 28 0 18 -6 26 -23 28
-13 2 -25 -3 -28 -12z"/>
<path d="M8524 336 c-10 -26 4 -48 28 -44 17 2 23 10 23 28 0 18 -6 26 -23 28
-13 2 -25 -3 -28 -12z"/>
</g>
</svg>
